<mxfile host="65bd71144e">
    <diagram id="8CmZtZmvUr-k15PH2G1F" name="Soc">
        <mxGraphModel dx="676" dy="800" grid="1" gridSize="10" guides="1" tooltips="1" connect="1" arrows="1" fold="1" page="1" pageScale="1" pageWidth="1654" pageHeight="1169" math="0" shadow="0">
            <root>
                <mxCell id="0"/>
                <mxCell id="1" parent="0"/>
                <mxCell id="72" value="" style="rounded=1;whiteSpace=wrap;html=1;" parent="1" vertex="1">
                    <mxGeometry x="100" y="555" width="820" height="485" as="geometry"/>
                </mxCell>
                <mxCell id="5" value="" style="rounded=1;whiteSpace=wrap;html=1;" parent="1" vertex="1">
                    <mxGeometry y="55" width="970" height="350" as="geometry"/>
                </mxCell>
                <mxCell id="2" value="Core Top" style="rounded=1;whiteSpace=wrap;html=1;" parent="1" vertex="1">
                    <mxGeometry x="40" y="200" width="120" height="60" as="geometry"/>
                </mxCell>
                <mxCell id="51" style="edgeStyle=orthogonalEdgeStyle;rounded=0;orthogonalLoop=1;jettySize=auto;html=1;exitX=1;exitY=0.5;exitDx=0;exitDy=0;endArrow=classic;startArrow=classic;entryX=0.5;entryY=0;entryDx=0;entryDy=0;" parent="1" source="3" target="53" edge="1">
                    <mxGeometry relative="1" as="geometry">
                        <mxPoint x="480" y="570" as="targetPoint"/>
                        <Array as="points">
                            <mxPoint x="1040" y="235"/>
                            <mxPoint x="1040" y="480"/>
                            <mxPoint x="480" y="480"/>
                        </Array>
                    </mxGeometry>
                </mxCell>
                <mxCell id="3" value="AXI Crossbar&lt;br&gt;（IP）" style="rounded=1;whiteSpace=wrap;html=1;" parent="1" vertex="1">
                    <mxGeometry x="790" y="110" width="110" height="250" as="geometry"/>
                </mxCell>
                <mxCell id="4" value="MMU" style="rounded=1;whiteSpace=wrap;html=1;" parent="1" vertex="1">
                    <mxGeometry x="350" y="200" width="120" height="60" as="geometry"/>
                </mxCell>
                <mxCell id="7" value="" style="endArrow=classic;html=1;startArrow=none;" parent="1" source="15" edge="1">
                    <mxGeometry width="50" height="50" relative="1" as="geometry">
                        <mxPoint x="160" y="210" as="sourcePoint"/>
                        <mxPoint x="350" y="210" as="targetPoint"/>
                    </mxGeometry>
                </mxCell>
                <mxCell id="8" value="" style="endArrow=classic;html=1;startArrow=none;" parent="1" source="18" edge="1">
                    <mxGeometry width="50" height="50" relative="1" as="geometry">
                        <mxPoint x="160" y="220" as="sourcePoint"/>
                        <mxPoint x="350" y="220" as="targetPoint"/>
                    </mxGeometry>
                </mxCell>
                <mxCell id="10" value="" style="endArrow=classic;html=1;startArrow=none;" parent="1" source="16" edge="1">
                    <mxGeometry width="50" height="50" relative="1" as="geometry">
                        <mxPoint x="350" y="250" as="sourcePoint"/>
                        <mxPoint x="160" y="250" as="targetPoint"/>
                    </mxGeometry>
                </mxCell>
                <mxCell id="12" value="" style="endArrow=classic;html=1;startArrow=none;" parent="1" source="17" edge="1">
                    <mxGeometry width="50" height="50" relative="1" as="geometry">
                        <mxPoint x="350" y="240" as="sourcePoint"/>
                        <mxPoint x="160" y="240" as="targetPoint"/>
                    </mxGeometry>
                </mxCell>
                <mxCell id="18" value="dreq" style="text;html=1;strokeColor=none;fillColor=none;align=center;verticalAlign=middle;whiteSpace=wrap;rounded=0;rotation=-30;" parent="1" vertex="1">
                    <mxGeometry x="220" y="210" width="40" height="20" as="geometry"/>
                </mxCell>
                <mxCell id="21" value="" style="endArrow=none;html=1;" parent="1" target="18" edge="1">
                    <mxGeometry width="50" height="50" relative="1" as="geometry">
                        <mxPoint x="160" y="220" as="sourcePoint"/>
                        <mxPoint x="350" y="220" as="targetPoint"/>
                    </mxGeometry>
                </mxCell>
                <mxCell id="15" value="ireq" style="text;html=1;strokeColor=none;fillColor=none;align=center;verticalAlign=middle;whiteSpace=wrap;rounded=0;rotation=-30;" parent="1" vertex="1">
                    <mxGeometry x="210" y="200" width="40" height="20" as="geometry"/>
                </mxCell>
                <mxCell id="22" value="" style="endArrow=none;html=1;" parent="1" target="15" edge="1">
                    <mxGeometry width="50" height="50" relative="1" as="geometry">
                        <mxPoint x="160" y="210" as="sourcePoint"/>
                        <mxPoint x="350" y="210" as="targetPoint"/>
                    </mxGeometry>
                </mxCell>
                <mxCell id="16" value="dresp" style="text;html=1;strokeColor=none;fillColor=none;align=center;verticalAlign=middle;whiteSpace=wrap;rounded=0;rotation=-30;" parent="1" vertex="1">
                    <mxGeometry x="220" y="240" width="40" height="20" as="geometry"/>
                </mxCell>
                <mxCell id="23" value="" style="endArrow=none;html=1;" parent="1" target="16" edge="1">
                    <mxGeometry width="50" height="50" relative="1" as="geometry">
                        <mxPoint x="350" y="250" as="sourcePoint"/>
                        <mxPoint x="160" y="250" as="targetPoint"/>
                    </mxGeometry>
                </mxCell>
                <mxCell id="17" value="iresp" style="text;html=1;strokeColor=none;fillColor=none;align=center;verticalAlign=middle;whiteSpace=wrap;rounded=0;rotation=-30;" parent="1" vertex="1">
                    <mxGeometry x="220" y="230" width="40" height="20" as="geometry"/>
                </mxCell>
                <mxCell id="24" value="" style="endArrow=none;html=1;" parent="1" target="17" edge="1">
                    <mxGeometry width="50" height="50" relative="1" as="geometry">
                        <mxPoint x="350" y="240" as="sourcePoint"/>
                        <mxPoint x="160" y="240" as="targetPoint"/>
                    </mxGeometry>
                </mxCell>
                <mxCell id="31" style="edgeStyle=orthogonalEdgeStyle;rounded=0;orthogonalLoop=1;jettySize=auto;html=1;exitX=0;exitY=0.25;exitDx=0;exitDy=0;entryX=1;entryY=0.25;entryDx=0;entryDy=0;endArrow=classic;startArrow=none;" parent="1" source="41" target="4" edge="1">
                    <mxGeometry relative="1" as="geometry">
                        <mxPoint x="500" y="210" as="targetPoint"/>
                    </mxGeometry>
                </mxCell>
                <mxCell id="47" style="edgeStyle=orthogonalEdgeStyle;rounded=0;orthogonalLoop=1;jettySize=auto;html=1;exitX=1;exitY=0.5;exitDx=0;exitDy=0;entryX=0;entryY=0.12;entryDx=0;entryDy=0;entryPerimeter=0;endArrow=classic;startArrow=classic;" parent="1" source="28" target="3" edge="1">
                    <mxGeometry relative="1" as="geometry"/>
                </mxCell>
                <mxCell id="28" value="L1i&amp;nbsp; Cache" style="rounded=1;whiteSpace=wrap;html=1;" parent="1" vertex="1">
                    <mxGeometry x="590" y="110" width="120" height="60" as="geometry"/>
                </mxCell>
                <mxCell id="32" style="edgeStyle=orthogonalEdgeStyle;rounded=0;orthogonalLoop=1;jettySize=auto;html=1;exitX=0;exitY=0.5;exitDx=0;exitDy=0;entryX=1;entryY=0.5;entryDx=0;entryDy=0;endArrow=classic;startArrow=none;" parent="1" source="40" target="4" edge="1">
                    <mxGeometry relative="1" as="geometry"/>
                </mxCell>
                <mxCell id="48" style="edgeStyle=orthogonalEdgeStyle;rounded=0;orthogonalLoop=1;jettySize=auto;html=1;exitX=1;exitY=0.5;exitDx=0;exitDy=0;entryX=0;entryY=0.481;entryDx=0;entryDy=0;entryPerimeter=0;endArrow=classic;startArrow=classic;" parent="1" source="29" target="3" edge="1">
                    <mxGeometry relative="1" as="geometry"/>
                </mxCell>
                <mxCell id="29" value="L1d Cache" style="rounded=1;whiteSpace=wrap;html=1;" parent="1" vertex="1">
                    <mxGeometry x="590" y="200" width="120" height="60" as="geometry"/>
                </mxCell>
                <mxCell id="33" style="edgeStyle=orthogonalEdgeStyle;rounded=0;orthogonalLoop=1;jettySize=auto;html=1;exitX=0;exitY=0.5;exitDx=0;exitDy=0;entryX=1;entryY=0.75;entryDx=0;entryDy=0;endArrow=classic;startArrow=none;" parent="1" source="39" target="4" edge="1">
                    <mxGeometry relative="1" as="geometry"/>
                </mxCell>
                <mxCell id="50" style="edgeStyle=orthogonalEdgeStyle;rounded=0;orthogonalLoop=1;jettySize=auto;html=1;exitX=1;exitY=0.5;exitDx=0;exitDy=0;entryX=0.009;entryY=0.841;entryDx=0;entryDy=0;entryPerimeter=0;endArrow=classic;startArrow=classic;" parent="1" source="30" target="3" edge="1">
                    <mxGeometry relative="1" as="geometry"/>
                </mxCell>
                <mxCell id="30" value="Uncached" style="rounded=1;whiteSpace=wrap;html=1;" parent="1" vertex="1">
                    <mxGeometry x="590" y="290" width="120" height="60" as="geometry"/>
                </mxCell>
                <mxCell id="36" value="&lt;font style=&quot;font-size: 18px&quot;&gt;&lt;b&gt;CPU Top&lt;/b&gt;&lt;/font&gt;" style="text;html=1;strokeColor=none;fillColor=none;align=center;verticalAlign=middle;whiteSpace=wrap;rounded=0;" parent="1" vertex="1">
                    <mxGeometry x="60" y="320" width="140" height="50" as="geometry"/>
                </mxCell>
                <mxCell id="41" value="ibus" style="text;html=1;strokeColor=none;fillColor=none;align=center;verticalAlign=middle;whiteSpace=wrap;rounded=0;" parent="1" vertex="1">
                    <mxGeometry x="510" y="180" width="40" height="20" as="geometry"/>
                </mxCell>
                <mxCell id="43" value="" style="edgeStyle=orthogonalEdgeStyle;rounded=0;orthogonalLoop=1;jettySize=auto;html=1;exitX=0;exitY=0.25;exitDx=0;exitDy=0;entryX=1;entryY=0.25;entryDx=0;entryDy=0;endArrow=none;startArrow=classic;" parent="1" source="28" target="41" edge="1">
                    <mxGeometry relative="1" as="geometry">
                        <mxPoint x="470" y="215" as="targetPoint"/>
                        <mxPoint x="590" y="125" as="sourcePoint"/>
                    </mxGeometry>
                </mxCell>
                <mxCell id="40" value="dbus" style="text;html=1;strokeColor=none;fillColor=none;align=center;verticalAlign=middle;whiteSpace=wrap;rounded=0;" parent="1" vertex="1">
                    <mxGeometry x="510" y="220" width="40" height="20" as="geometry"/>
                </mxCell>
                <mxCell id="44" value="" style="edgeStyle=orthogonalEdgeStyle;rounded=0;orthogonalLoop=1;jettySize=auto;html=1;exitX=0;exitY=0.5;exitDx=0;exitDy=0;entryX=1;entryY=0.5;entryDx=0;entryDy=0;endArrow=none;startArrow=classic;" parent="1" source="29" target="40" edge="1">
                    <mxGeometry relative="1" as="geometry">
                        <mxPoint x="590" y="230" as="sourcePoint"/>
                        <mxPoint x="470" y="230" as="targetPoint"/>
                    </mxGeometry>
                </mxCell>
                <mxCell id="39" value="uncached bus" style="text;html=1;strokeColor=none;fillColor=none;align=center;verticalAlign=middle;whiteSpace=wrap;rounded=0;" parent="1" vertex="1">
                    <mxGeometry x="520" y="310" width="40" height="20" as="geometry"/>
                </mxCell>
                <mxCell id="45" value="" style="edgeStyle=orthogonalEdgeStyle;rounded=0;orthogonalLoop=1;jettySize=auto;html=1;exitX=0;exitY=0.5;exitDx=0;exitDy=0;entryX=1;entryY=0.75;entryDx=0;entryDy=0;endArrow=none;startArrow=classic;" parent="1" source="30" target="39" edge="1">
                    <mxGeometry relative="1" as="geometry">
                        <mxPoint x="590" y="320" as="sourcePoint"/>
                        <mxPoint x="470" y="245" as="targetPoint"/>
                    </mxGeometry>
                </mxCell>
                <mxCell id="55" value="AXI 1x2&amp;nbsp; Bridge（IP）" style="rounded=1;whiteSpace=wrap;html=1;" parent="1" vertex="1">
                    <mxGeometry x="200" y="740" width="560" height="100" as="geometry"/>
                </mxCell>
                <mxCell id="59" value="AXI RAM（IP）" style="rounded=1;whiteSpace=wrap;html=1;" parent="1" vertex="1">
                    <mxGeometry x="250" y="910" width="200" height="90" as="geometry"/>
                </mxCell>
                <mxCell id="61" value="Confreg&lt;br&gt;with&lt;br&gt;AXI interface" style="rounded=1;whiteSpace=wrap;html=1;" parent="1" vertex="1">
                    <mxGeometry x="530" y="910" width="200" height="90" as="geometry"/>
                </mxCell>
                <mxCell id="68" style="edgeStyle=orthogonalEdgeStyle;rounded=0;orthogonalLoop=1;jettySize=auto;html=1;" parent="1" edge="1">
                    <mxGeometry relative="1" as="geometry">
                        <mxPoint x="360" y="849.9700000000003" as="sourcePoint"/>
                        <mxPoint x="360.28999999999996" y="910" as="targetPoint"/>
                        <Array as="points">
                            <mxPoint x="360" y="839.97"/>
                            <mxPoint x="360" y="839.97"/>
                        </Array>
                    </mxGeometry>
                </mxCell>
                <mxCell id="71" style="edgeStyle=orthogonalEdgeStyle;rounded=0;orthogonalLoop=1;jettySize=auto;html=1;" parent="1" edge="1">
                    <mxGeometry relative="1" as="geometry">
                        <mxPoint x="639.6600000000001" y="849.9700000000003" as="sourcePoint"/>
                        <mxPoint x="639.95" y="910" as="targetPoint"/>
                        <Array as="points">
                            <mxPoint x="639.6600000000001" y="839.97"/>
                            <mxPoint x="639.6600000000001" y="839.97"/>
                        </Array>
                    </mxGeometry>
                </mxCell>
                <mxCell id="74" style="edgeStyle=orthogonalEdgeStyle;rounded=0;orthogonalLoop=1;jettySize=auto;html=1;exitX=0.5;exitY=1;exitDx=0;exitDy=0;entryX=0.5;entryY=0;entryDx=0;entryDy=0;" parent="1" source="53" target="55" edge="1">
                    <mxGeometry relative="1" as="geometry"/>
                </mxCell>
                <mxCell id="53" value="AXI Clock Convert （IP）" style="rounded=1;whiteSpace=wrap;html=1;" parent="1" vertex="1">
                    <mxGeometry x="200" y="600" width="560" height="100" as="geometry"/>
                </mxCell>
                <mxCell id="76" value="&lt;span style=&quot;font-size: 18px&quot;&gt;&lt;b&gt;Memory&lt;br&gt;IPs&lt;br&gt;&lt;/b&gt;&lt;/span&gt;" style="text;html=1;strokeColor=none;fillColor=none;align=center;verticalAlign=middle;whiteSpace=wrap;rounded=0;" parent="1" vertex="1">
                    <mxGeometry x="760" y="940" width="140" height="50" as="geometry"/>
                </mxCell>
                <mxCell id="80" value="AXI 4" style="text;html=1;strokeColor=none;fillColor=none;align=center;verticalAlign=middle;whiteSpace=wrap;rounded=0;" parent="1" vertex="1">
                    <mxGeometry x="730" y="300" width="40" height="20" as="geometry"/>
                </mxCell>
                <mxCell id="81" value="AXI 4" style="text;html=1;strokeColor=none;fillColor=none;align=center;verticalAlign=middle;whiteSpace=wrap;rounded=0;" parent="1" vertex="1">
                    <mxGeometry x="730" y="210" width="40" height="20" as="geometry"/>
                </mxCell>
                <mxCell id="82" value="AXI 4" style="text;html=1;strokeColor=none;fillColor=none;align=center;verticalAlign=middle;whiteSpace=wrap;rounded=0;" parent="1" vertex="1">
                    <mxGeometry x="730" y="120" width="40" height="20" as="geometry"/>
                </mxCell>
                <mxCell id="84" value="AXI 4" style="text;html=1;strokeColor=none;fillColor=none;align=center;verticalAlign=middle;whiteSpace=wrap;rounded=0;" parent="1" vertex="1">
                    <mxGeometry x="850" y="460" width="40" height="20" as="geometry"/>
                </mxCell>
                <mxCell id="N1We6I7Cr33sKTq-1dcu-84" value="Core Top" style="rounded=1;whiteSpace=wrap;html=1;" vertex="1" parent="1">
                    <mxGeometry x="1190" y="610" width="120" height="60" as="geometry"/>
                </mxCell>
                <mxCell id="N1We6I7Cr33sKTq-1dcu-85" value="MMU" style="rounded=1;whiteSpace=wrap;html=1;" vertex="1" parent="1">
                    <mxGeometry x="1500" y="610" width="120" height="60" as="geometry"/>
                </mxCell>
                <mxCell id="N1We6I7Cr33sKTq-1dcu-86" value="" style="endArrow=classic;html=1;startArrow=none;" edge="1" parent="1" source="N1We6I7Cr33sKTq-1dcu-92">
                    <mxGeometry width="50" height="50" relative="1" as="geometry">
                        <mxPoint x="1310" y="620" as="sourcePoint"/>
                        <mxPoint x="1500" y="620" as="targetPoint"/>
                    </mxGeometry>
                </mxCell>
                <mxCell id="N1We6I7Cr33sKTq-1dcu-87" value="" style="endArrow=classic;html=1;startArrow=none;" edge="1" parent="1" source="N1We6I7Cr33sKTq-1dcu-90">
                    <mxGeometry width="50" height="50" relative="1" as="geometry">
                        <mxPoint x="1310" y="630" as="sourcePoint"/>
                        <mxPoint x="1500" y="630" as="targetPoint"/>
                    </mxGeometry>
                </mxCell>
                <mxCell id="N1We6I7Cr33sKTq-1dcu-88" value="" style="endArrow=classic;html=1;startArrow=none;" edge="1" parent="1" source="N1We6I7Cr33sKTq-1dcu-94">
                    <mxGeometry width="50" height="50" relative="1" as="geometry">
                        <mxPoint x="1500" y="660" as="sourcePoint"/>
                        <mxPoint x="1310" y="660" as="targetPoint"/>
                    </mxGeometry>
                </mxCell>
                <mxCell id="N1We6I7Cr33sKTq-1dcu-89" value="" style="endArrow=classic;html=1;startArrow=none;" edge="1" parent="1" source="N1We6I7Cr33sKTq-1dcu-96">
                    <mxGeometry width="50" height="50" relative="1" as="geometry">
                        <mxPoint x="1500" y="650" as="sourcePoint"/>
                        <mxPoint x="1310" y="650" as="targetPoint"/>
                    </mxGeometry>
                </mxCell>
                <mxCell id="N1We6I7Cr33sKTq-1dcu-90" value="dreq" style="text;html=1;strokeColor=none;fillColor=none;align=center;verticalAlign=middle;whiteSpace=wrap;rounded=0;rotation=-30;" vertex="1" parent="1">
                    <mxGeometry x="1370" y="620" width="40" height="20" as="geometry"/>
                </mxCell>
                <mxCell id="N1We6I7Cr33sKTq-1dcu-91" value="" style="endArrow=none;html=1;" edge="1" parent="1" target="N1We6I7Cr33sKTq-1dcu-90">
                    <mxGeometry width="50" height="50" relative="1" as="geometry">
                        <mxPoint x="1310" y="630" as="sourcePoint"/>
                        <mxPoint x="1500" y="630" as="targetPoint"/>
                    </mxGeometry>
                </mxCell>
                <mxCell id="N1We6I7Cr33sKTq-1dcu-92" value="ireq" style="text;html=1;strokeColor=none;fillColor=none;align=center;verticalAlign=middle;whiteSpace=wrap;rounded=0;rotation=-30;" vertex="1" parent="1">
                    <mxGeometry x="1360" y="610" width="40" height="20" as="geometry"/>
                </mxCell>
                <mxCell id="N1We6I7Cr33sKTq-1dcu-93" value="" style="endArrow=none;html=1;" edge="1" parent="1" target="N1We6I7Cr33sKTq-1dcu-92">
                    <mxGeometry width="50" height="50" relative="1" as="geometry">
                        <mxPoint x="1310" y="620" as="sourcePoint"/>
                        <mxPoint x="1500" y="620" as="targetPoint"/>
                    </mxGeometry>
                </mxCell>
                <mxCell id="N1We6I7Cr33sKTq-1dcu-94" value="dresp" style="text;html=1;strokeColor=none;fillColor=none;align=center;verticalAlign=middle;whiteSpace=wrap;rounded=0;rotation=-30;" vertex="1" parent="1">
                    <mxGeometry x="1370" y="650" width="40" height="20" as="geometry"/>
                </mxCell>
                <mxCell id="N1We6I7Cr33sKTq-1dcu-95" value="" style="endArrow=none;html=1;" edge="1" parent="1" target="N1We6I7Cr33sKTq-1dcu-94">
                    <mxGeometry width="50" height="50" relative="1" as="geometry">
                        <mxPoint x="1500" y="660" as="sourcePoint"/>
                        <mxPoint x="1310" y="660" as="targetPoint"/>
                    </mxGeometry>
                </mxCell>
                <mxCell id="N1We6I7Cr33sKTq-1dcu-96" value="iresp" style="text;html=1;strokeColor=none;fillColor=none;align=center;verticalAlign=middle;whiteSpace=wrap;rounded=0;rotation=-30;" vertex="1" parent="1">
                    <mxGeometry x="1370" y="640" width="40" height="20" as="geometry"/>
                </mxCell>
                <mxCell id="N1We6I7Cr33sKTq-1dcu-97" value="" style="endArrow=none;html=1;" edge="1" parent="1" target="N1We6I7Cr33sKTq-1dcu-96">
                    <mxGeometry width="50" height="50" relative="1" as="geometry">
                        <mxPoint x="1500" y="650" as="sourcePoint"/>
                        <mxPoint x="1310" y="650" as="targetPoint"/>
                    </mxGeometry>
                </mxCell>
                <mxCell id="N1We6I7Cr33sKTq-1dcu-98" style="edgeStyle=orthogonalEdgeStyle;rounded=0;orthogonalLoop=1;jettySize=auto;html=1;exitX=0;exitY=0.25;exitDx=0;exitDy=0;entryX=1;entryY=0.25;entryDx=0;entryDy=0;endArrow=classic;startArrow=none;" edge="1" parent="1" source="N1We6I7Cr33sKTq-1dcu-101" target="N1We6I7Cr33sKTq-1dcu-85">
                    <mxGeometry relative="1" as="geometry">
                        <mxPoint x="1650" y="620" as="targetPoint"/>
                    </mxGeometry>
                </mxCell>
                <mxCell id="N1We6I7Cr33sKTq-1dcu-99" style="edgeStyle=orthogonalEdgeStyle;rounded=0;orthogonalLoop=1;jettySize=auto;html=1;exitX=0;exitY=0.5;exitDx=0;exitDy=0;entryX=1;entryY=0.5;entryDx=0;entryDy=0;endArrow=classic;startArrow=none;" edge="1" parent="1" source="N1We6I7Cr33sKTq-1dcu-103" target="N1We6I7Cr33sKTq-1dcu-85">
                    <mxGeometry relative="1" as="geometry"/>
                </mxCell>
                <mxCell id="N1We6I7Cr33sKTq-1dcu-100" style="edgeStyle=orthogonalEdgeStyle;rounded=0;orthogonalLoop=1;jettySize=auto;html=1;exitX=0;exitY=0.5;exitDx=0;exitDy=0;entryX=1;entryY=0.75;entryDx=0;entryDy=0;endArrow=classic;startArrow=none;" edge="1" parent="1" source="N1We6I7Cr33sKTq-1dcu-105" target="N1We6I7Cr33sKTq-1dcu-85">
                    <mxGeometry relative="1" as="geometry"/>
                </mxCell>
                <mxCell id="N1We6I7Cr33sKTq-1dcu-101" value="ibus" style="text;html=1;strokeColor=none;fillColor=none;align=center;verticalAlign=middle;whiteSpace=wrap;rounded=0;" vertex="1" parent="1">
                    <mxGeometry x="1660" y="590" width="40" height="20" as="geometry"/>
                </mxCell>
                <mxCell id="N1We6I7Cr33sKTq-1dcu-102" value="" style="edgeStyle=orthogonalEdgeStyle;rounded=0;orthogonalLoop=1;jettySize=auto;html=1;exitX=0;exitY=0.25;exitDx=0;exitDy=0;entryX=1;entryY=0.25;entryDx=0;entryDy=0;endArrow=none;startArrow=classic;" edge="1" parent="1" target="N1We6I7Cr33sKTq-1dcu-101">
                    <mxGeometry relative="1" as="geometry">
                        <mxPoint x="1620" y="625" as="targetPoint"/>
                        <mxPoint x="1740" y="535" as="sourcePoint"/>
                    </mxGeometry>
                </mxCell>
                <mxCell id="N1We6I7Cr33sKTq-1dcu-103" value="dbus" style="text;html=1;strokeColor=none;fillColor=none;align=center;verticalAlign=middle;whiteSpace=wrap;rounded=0;" vertex="1" parent="1">
                    <mxGeometry x="1660" y="630" width="40" height="20" as="geometry"/>
                </mxCell>
                <mxCell id="N1We6I7Cr33sKTq-1dcu-104" value="" style="edgeStyle=orthogonalEdgeStyle;rounded=0;orthogonalLoop=1;jettySize=auto;html=1;exitX=0;exitY=0.5;exitDx=0;exitDy=0;entryX=1;entryY=0.5;entryDx=0;entryDy=0;endArrow=none;startArrow=classic;" edge="1" parent="1" target="N1We6I7Cr33sKTq-1dcu-103">
                    <mxGeometry relative="1" as="geometry">
                        <mxPoint x="1740" y="640" as="sourcePoint"/>
                        <mxPoint x="1620" y="640" as="targetPoint"/>
                    </mxGeometry>
                </mxCell>
                <mxCell id="N1We6I7Cr33sKTq-1dcu-105" value="uncached bus" style="text;html=1;strokeColor=none;fillColor=none;align=center;verticalAlign=middle;whiteSpace=wrap;rounded=0;" vertex="1" parent="1">
                    <mxGeometry x="1670" y="720" width="40" height="20" as="geometry"/>
                </mxCell>
                <mxCell id="N1We6I7Cr33sKTq-1dcu-106" value="" style="edgeStyle=orthogonalEdgeStyle;rounded=0;orthogonalLoop=1;jettySize=auto;html=1;exitX=0;exitY=0.5;exitDx=0;exitDy=0;endArrow=none;startArrow=classic;" edge="1" parent="1">
                    <mxGeometry relative="1" as="geometry">
                        <mxPoint x="1740" y="730" as="sourcePoint"/>
                        <mxPoint x="1710" y="730" as="targetPoint"/>
                    </mxGeometry>
                </mxCell>
                <mxCell id="N1We6I7Cr33sKTq-1dcu-107" value="L1i&amp;nbsp; Cache" style="rounded=1;whiteSpace=wrap;html=1;" vertex="1" parent="1">
                    <mxGeometry x="1740.1399999999999" y="520" width="120" height="60" as="geometry"/>
                </mxCell>
                <mxCell id="N1We6I7Cr33sKTq-1dcu-108" value="L1d Cache" style="rounded=1;whiteSpace=wrap;html=1;" vertex="1" parent="1">
                    <mxGeometry x="1740.1399999999999" y="610" width="120" height="60" as="geometry"/>
                </mxCell>
                <mxCell id="N1We6I7Cr33sKTq-1dcu-109" value="Uncached" style="rounded=1;whiteSpace=wrap;html=1;" vertex="1" parent="1">
                    <mxGeometry x="1740.1399999999999" y="700" width="120" height="60" as="geometry"/>
                </mxCell>
                <mxCell id="N1We6I7Cr33sKTq-1dcu-110" value="" style="edgeStyle=orthogonalEdgeStyle;rounded=0;orthogonalLoop=1;jettySize=auto;html=1;exitX=0;exitY=0.5;exitDx=0;exitDy=0;endArrow=none;startArrow=classic;" edge="1" parent="1" source="N1We6I7Cr33sKTq-1dcu-109">
                    <mxGeometry relative="1" as="geometry">
                        <mxPoint x="1740.1399999999999" y="730" as="sourcePoint"/>
                        <mxPoint x="1710" y="730" as="targetPoint"/>
                    </mxGeometry>
                </mxCell>
            </root>
        </mxGraphModel>
    </diagram>
    <diagram id="qx8b3w9f5hYd3C2bV-dA" name="cache">
        <mxGraphModel dx="263" dy="2267" grid="1" gridSize="10" guides="1" tooltips="1" connect="1" arrows="1" fold="1" page="1" pageScale="1" pageWidth="1654" pageHeight="1169" math="0" shadow="0">
            <root>
                <mxCell id="Kx-FcVy0D3LXmdpkKyLA-0"/>
                <mxCell id="Kx-FcVy0D3LXmdpkKyLA-1" parent="Kx-FcVy0D3LXmdpkKyLA-0"/>
                <mxCell id="JLTTRpACMPoUZJ_DrYzc-0" value="Core Top" style="rounded=1;whiteSpace=wrap;html=1;" vertex="1" parent="Kx-FcVy0D3LXmdpkKyLA-1">
                    <mxGeometry x="2060" y="670" width="120" height="60" as="geometry"/>
                </mxCell>
                <mxCell id="JLTTRpACMPoUZJ_DrYzc-1" value="MMU" style="rounded=1;whiteSpace=wrap;html=1;" vertex="1" parent="Kx-FcVy0D3LXmdpkKyLA-1">
                    <mxGeometry x="2370" y="670" width="120" height="60" as="geometry"/>
                </mxCell>
                <mxCell id="JLTTRpACMPoUZJ_DrYzc-2" value="" style="endArrow=classic;html=1;startArrow=none;" edge="1" parent="Kx-FcVy0D3LXmdpkKyLA-1" source="JLTTRpACMPoUZJ_DrYzc-8">
                    <mxGeometry width="50" height="50" relative="1" as="geometry">
                        <mxPoint x="2180" y="680" as="sourcePoint"/>
                        <mxPoint x="2370" y="680" as="targetPoint"/>
                    </mxGeometry>
                </mxCell>
                <mxCell id="JLTTRpACMPoUZJ_DrYzc-3" value="" style="endArrow=classic;html=1;startArrow=none;" edge="1" parent="Kx-FcVy0D3LXmdpkKyLA-1" source="JLTTRpACMPoUZJ_DrYzc-6">
                    <mxGeometry width="50" height="50" relative="1" as="geometry">
                        <mxPoint x="2180" y="690" as="sourcePoint"/>
                        <mxPoint x="2370" y="690" as="targetPoint"/>
                    </mxGeometry>
                </mxCell>
                <mxCell id="JLTTRpACMPoUZJ_DrYzc-4" value="" style="endArrow=classic;html=1;startArrow=none;" edge="1" parent="Kx-FcVy0D3LXmdpkKyLA-1" source="JLTTRpACMPoUZJ_DrYzc-10">
                    <mxGeometry width="50" height="50" relative="1" as="geometry">
                        <mxPoint x="2370" y="720" as="sourcePoint"/>
                        <mxPoint x="2180" y="720" as="targetPoint"/>
                    </mxGeometry>
                </mxCell>
                <mxCell id="JLTTRpACMPoUZJ_DrYzc-5" value="" style="endArrow=classic;html=1;startArrow=none;" edge="1" parent="Kx-FcVy0D3LXmdpkKyLA-1" source="JLTTRpACMPoUZJ_DrYzc-12">
                    <mxGeometry width="50" height="50" relative="1" as="geometry">
                        <mxPoint x="2370" y="710" as="sourcePoint"/>
                        <mxPoint x="2180" y="710" as="targetPoint"/>
                    </mxGeometry>
                </mxCell>
                <mxCell id="JLTTRpACMPoUZJ_DrYzc-6" value="dreq" style="text;html=1;strokeColor=none;fillColor=none;align=center;verticalAlign=middle;whiteSpace=wrap;rounded=0;rotation=-30;" vertex="1" parent="Kx-FcVy0D3LXmdpkKyLA-1">
                    <mxGeometry x="2240" y="680" width="40" height="20" as="geometry"/>
                </mxCell>
                <mxCell id="JLTTRpACMPoUZJ_DrYzc-7" value="" style="endArrow=none;html=1;" edge="1" parent="Kx-FcVy0D3LXmdpkKyLA-1" target="JLTTRpACMPoUZJ_DrYzc-6">
                    <mxGeometry width="50" height="50" relative="1" as="geometry">
                        <mxPoint x="2180" y="690" as="sourcePoint"/>
                        <mxPoint x="2370" y="690" as="targetPoint"/>
                    </mxGeometry>
                </mxCell>
                <mxCell id="JLTTRpACMPoUZJ_DrYzc-8" value="ireq" style="text;html=1;strokeColor=none;fillColor=none;align=center;verticalAlign=middle;whiteSpace=wrap;rounded=0;rotation=-30;" vertex="1" parent="Kx-FcVy0D3LXmdpkKyLA-1">
                    <mxGeometry x="2230" y="670" width="40" height="20" as="geometry"/>
                </mxCell>
                <mxCell id="JLTTRpACMPoUZJ_DrYzc-9" value="" style="endArrow=none;html=1;" edge="1" parent="Kx-FcVy0D3LXmdpkKyLA-1" target="JLTTRpACMPoUZJ_DrYzc-8">
                    <mxGeometry width="50" height="50" relative="1" as="geometry">
                        <mxPoint x="2180" y="680" as="sourcePoint"/>
                        <mxPoint x="2370" y="680" as="targetPoint"/>
                    </mxGeometry>
                </mxCell>
                <mxCell id="JLTTRpACMPoUZJ_DrYzc-10" value="dresp" style="text;html=1;strokeColor=none;fillColor=none;align=center;verticalAlign=middle;whiteSpace=wrap;rounded=0;rotation=-30;" vertex="1" parent="Kx-FcVy0D3LXmdpkKyLA-1">
                    <mxGeometry x="2240" y="710" width="40" height="20" as="geometry"/>
                </mxCell>
                <mxCell id="JLTTRpACMPoUZJ_DrYzc-11" value="" style="endArrow=none;html=1;" edge="1" parent="Kx-FcVy0D3LXmdpkKyLA-1" target="JLTTRpACMPoUZJ_DrYzc-10">
                    <mxGeometry width="50" height="50" relative="1" as="geometry">
                        <mxPoint x="2370" y="720" as="sourcePoint"/>
                        <mxPoint x="2180" y="720" as="targetPoint"/>
                    </mxGeometry>
                </mxCell>
                <mxCell id="JLTTRpACMPoUZJ_DrYzc-12" value="iresp" style="text;html=1;strokeColor=none;fillColor=none;align=center;verticalAlign=middle;whiteSpace=wrap;rounded=0;rotation=-30;" vertex="1" parent="Kx-FcVy0D3LXmdpkKyLA-1">
                    <mxGeometry x="2240" y="700" width="40" height="20" as="geometry"/>
                </mxCell>
                <mxCell id="JLTTRpACMPoUZJ_DrYzc-13" value="" style="endArrow=none;html=1;" edge="1" parent="Kx-FcVy0D3LXmdpkKyLA-1" target="JLTTRpACMPoUZJ_DrYzc-12">
                    <mxGeometry width="50" height="50" relative="1" as="geometry">
                        <mxPoint x="2370" y="710" as="sourcePoint"/>
                        <mxPoint x="2180" y="710" as="targetPoint"/>
                    </mxGeometry>
                </mxCell>
                <mxCell id="JLTTRpACMPoUZJ_DrYzc-14" style="edgeStyle=orthogonalEdgeStyle;rounded=0;orthogonalLoop=1;jettySize=auto;html=1;exitX=0;exitY=0.25;exitDx=0;exitDy=0;entryX=1;entryY=0.25;entryDx=0;entryDy=0;endArrow=classic;startArrow=none;" edge="1" parent="Kx-FcVy0D3LXmdpkKyLA-1" source="JLTTRpACMPoUZJ_DrYzc-17" target="JLTTRpACMPoUZJ_DrYzc-1">
                    <mxGeometry relative="1" as="geometry">
                        <mxPoint x="2520" y="680" as="targetPoint"/>
                    </mxGeometry>
                </mxCell>
                <mxCell id="JLTTRpACMPoUZJ_DrYzc-15" style="edgeStyle=orthogonalEdgeStyle;rounded=0;orthogonalLoop=1;jettySize=auto;html=1;exitX=0;exitY=0.5;exitDx=0;exitDy=0;entryX=1;entryY=0.5;entryDx=0;entryDy=0;endArrow=classic;startArrow=none;" edge="1" parent="Kx-FcVy0D3LXmdpkKyLA-1" source="JLTTRpACMPoUZJ_DrYzc-19" target="JLTTRpACMPoUZJ_DrYzc-1">
                    <mxGeometry relative="1" as="geometry"/>
                </mxCell>
                <mxCell id="JLTTRpACMPoUZJ_DrYzc-16" style="edgeStyle=orthogonalEdgeStyle;rounded=0;orthogonalLoop=1;jettySize=auto;html=1;exitX=0;exitY=0.5;exitDx=0;exitDy=0;entryX=1;entryY=0.75;entryDx=0;entryDy=0;endArrow=classic;startArrow=none;" edge="1" parent="Kx-FcVy0D3LXmdpkKyLA-1" source="JLTTRpACMPoUZJ_DrYzc-21" target="JLTTRpACMPoUZJ_DrYzc-1">
                    <mxGeometry relative="1" as="geometry"/>
                </mxCell>
                <mxCell id="JLTTRpACMPoUZJ_DrYzc-17" value="ibus" style="text;html=1;strokeColor=none;fillColor=none;align=center;verticalAlign=middle;whiteSpace=wrap;rounded=0;" vertex="1" parent="Kx-FcVy0D3LXmdpkKyLA-1">
                    <mxGeometry x="2530" y="650" width="40" height="20" as="geometry"/>
                </mxCell>
                <mxCell id="JLTTRpACMPoUZJ_DrYzc-18" value="" style="edgeStyle=orthogonalEdgeStyle;rounded=0;orthogonalLoop=1;jettySize=auto;html=1;exitX=0;exitY=0.25;exitDx=0;exitDy=0;entryX=1;entryY=0.25;entryDx=0;entryDy=0;endArrow=none;startArrow=classic;" edge="1" parent="Kx-FcVy0D3LXmdpkKyLA-1" target="JLTTRpACMPoUZJ_DrYzc-17">
                    <mxGeometry relative="1" as="geometry">
                        <mxPoint x="2490" y="685" as="targetPoint"/>
                        <mxPoint x="2610" y="595" as="sourcePoint"/>
                    </mxGeometry>
                </mxCell>
                <mxCell id="JLTTRpACMPoUZJ_DrYzc-19" value="dbus" style="text;html=1;strokeColor=none;fillColor=none;align=center;verticalAlign=middle;whiteSpace=wrap;rounded=0;" vertex="1" parent="Kx-FcVy0D3LXmdpkKyLA-1">
                    <mxGeometry x="2530" y="690" width="40" height="20" as="geometry"/>
                </mxCell>
                <mxCell id="JLTTRpACMPoUZJ_DrYzc-20" value="" style="edgeStyle=orthogonalEdgeStyle;rounded=0;orthogonalLoop=1;jettySize=auto;html=1;exitX=0;exitY=0.5;exitDx=0;exitDy=0;entryX=1;entryY=0.5;entryDx=0;entryDy=0;endArrow=none;startArrow=classic;" edge="1" parent="Kx-FcVy0D3LXmdpkKyLA-1" target="JLTTRpACMPoUZJ_DrYzc-19">
                    <mxGeometry relative="1" as="geometry">
                        <mxPoint x="2610" y="700" as="sourcePoint"/>
                        <mxPoint x="2490" y="700" as="targetPoint"/>
                    </mxGeometry>
                </mxCell>
                <mxCell id="JLTTRpACMPoUZJ_DrYzc-21" value="uncached bus" style="text;html=1;strokeColor=none;fillColor=none;align=center;verticalAlign=middle;whiteSpace=wrap;rounded=0;" vertex="1" parent="Kx-FcVy0D3LXmdpkKyLA-1">
                    <mxGeometry x="2540" y="780" width="40" height="20" as="geometry"/>
                </mxCell>
                <mxCell id="JLTTRpACMPoUZJ_DrYzc-22" value="" style="edgeStyle=orthogonalEdgeStyle;rounded=0;orthogonalLoop=1;jettySize=auto;html=1;exitX=0;exitY=0.5;exitDx=0;exitDy=0;endArrow=none;startArrow=classic;" edge="1" parent="Kx-FcVy0D3LXmdpkKyLA-1">
                    <mxGeometry relative="1" as="geometry">
                        <mxPoint x="2610" y="790" as="sourcePoint"/>
                        <mxPoint x="2580" y="790" as="targetPoint"/>
                    </mxGeometry>
                </mxCell>
                <mxCell id="JLTTRpACMPoUZJ_DrYzc-23" value="L1i&amp;nbsp; Cache" style="rounded=1;whiteSpace=wrap;html=1;" vertex="1" parent="Kx-FcVy0D3LXmdpkKyLA-1">
                    <mxGeometry x="2610.14" y="580" width="120" height="60" as="geometry"/>
                </mxCell>
                <mxCell id="JLTTRpACMPoUZJ_DrYzc-24" value="L1d Cache" style="rounded=1;whiteSpace=wrap;html=1;" vertex="1" parent="Kx-FcVy0D3LXmdpkKyLA-1">
                    <mxGeometry x="2610.14" y="670" width="120" height="60" as="geometry"/>
                </mxCell>
                <mxCell id="JLTTRpACMPoUZJ_DrYzc-25" value="Uncached" style="rounded=1;whiteSpace=wrap;html=1;" vertex="1" parent="Kx-FcVy0D3LXmdpkKyLA-1">
                    <mxGeometry x="2610.14" y="760" width="120" height="60" as="geometry"/>
                </mxCell>
                <mxCell id="JLTTRpACMPoUZJ_DrYzc-26" value="" style="edgeStyle=orthogonalEdgeStyle;rounded=0;orthogonalLoop=1;jettySize=auto;html=1;exitX=0;exitY=0.5;exitDx=0;exitDy=0;endArrow=none;startArrow=classic;" edge="1" parent="Kx-FcVy0D3LXmdpkKyLA-1" source="JLTTRpACMPoUZJ_DrYzc-25">
                    <mxGeometry relative="1" as="geometry">
                        <mxPoint x="2610.14" y="790" as="sourcePoint"/>
                        <mxPoint x="2580" y="790" as="targetPoint"/>
                    </mxGeometry>
                </mxCell>
            </root>
        </mxGraphModel>
    </diagram>
</mxfile>